<svg width="64" height="71" viewBox="0 0 64 71" fill="none" xmlns="http://www.w3.org/2000/svg">
<path d="M32.842 14.3611C31.8851 13.8252 31.0812 14.0166 30.5071 15.0117C30.5071 15.05 30.4688 15.05 30.4688 15.0883C29.8947 16.0835 30.1626 16.8873 31.1961 17.4997C41.3009 23.3559 51.4441 29.2122 61.6639 35.1067C63.1948 35.987 63.9988 37.5946 63.9988 39.3553C63.9605 42.3026 63.9605 45.3647 63.9988 48.5416C64.0371 51.8716 63.2331 54.283 60.2856 56.0055C57.2622 57.7661 54.0851 59.6032 50.7934 61.4786C50.7552 61.5169 50.6786 61.4786 50.6403 61.4403V46.934C50.6403 45.1733 49.76 43.6805 48.3055 42.8384C38.2006 36.9822 28.5168 31.3939 19.254 26.0735C17.5698 25.1166 16.8426 23.4325 16.8426 21.4804C16.8426 16.5428 16.8809 11.8731 16.8809 7.47141C16.8809 7.31827 16.9574 7.20347 17.1105 7.1269C20.1726 5.4045 23.1964 3.64376 26.1819 1.88308C27.8278 0.887902 29.2823 0.313766 30.5071 0.122383C32.6506 -0.222102 34.7175 0.160657 36.6313 1.27067C44.7076 5.90204 52.669 10.4952 60.4771 15.0117C62.9651 16.4662 64.0371 18.8394 63.9988 21.6718C63.9605 25.6908 63.9605 29.2122 63.9988 32.2743C63.9988 32.4274 63.9222 32.4656 63.8074 32.3891C53.5493 26.3032 43.2531 20.3704 32.842 14.3611Z" fill="#93AEFF"/>
<path d="M30.9664 56.1969C31.9615 56.7712 32.8036 56.618 33.5691 55.6992C33.5691 55.6609 33.6074 55.6609 33.6074 55.6226C34.0667 54.5506 33.7605 53.7471 32.7654 53.1347C23.005 47.5081 12.9384 41.6901 2.52728 35.6808C0.996232 34.8005 -0.0372179 33.3077 0.00105817 31.5087C0.0393342 28.0638 0.0393342 24.6956 0.00105817 21.3273C-0.0372179 18.6479 1.11106 16.2366 3.40763 14.8969C5.8573 13.4424 9.0725 11.6051 13.1297 9.27034C13.2828 9.19377 13.3594 9.23206 13.3594 9.38514V23.8535C13.3594 25.6525 14.3546 27.1069 15.8473 27.9873C25.1484 33.346 34.794 38.896 44.784 44.6756C46.3916 45.6326 47.1571 47.2402 47.1571 49.1157C47.1571 54.015 47.1189 58.7232 47.1571 63.2397C47.1571 63.3929 47.0806 63.5077 46.9657 63.5843C43.7123 65.4597 40.3823 67.3734 37.014 69.3254C34.794 70.5883 32.574 71.0094 30.3539 70.5883C29.1291 70.3591 27.3302 69.5551 24.9953 68.1769C17.4932 63.7752 10.4504 59.718 3.79039 55.8906C0.957958 54.2447 -0.0372179 51.8333 0.00105817 48.5415C0.0393342 45.1732 0.0776101 41.805 0.00105817 38.5515C0.00105817 38.4749 0.0776101 38.3601 0.154163 38.3601C0.192438 38.3601 0.230714 38.3601 0.230714 38.3984C10.4504 44.3694 20.7084 50.3022 30.9664 56.1969Z" fill="#FF35C6"/>
</svg>
